<?xml version="1.0" ?><!DOCTYPE svg  PUBLIC '-//W3C//DTD SVG 1.1//EN'  'http://www.w3.org/Graphics/SVG/1.1/DTD/svg11.dtd'><svg height="512px" style="enable-background:new 0 0 512 512;" version="1.1" viewBox="0 0 512 512" width="512px" xml:space="preserve" xmlns="http://www.w3.org/2000/svg" xmlns:xlink="http://www.w3.org/1999/xlink"><g id="army_x2C__military_x2C__war_x2C__weapon__x2C_navy_x2C__aviation_x2C___tank__x2C_"><g><path d="M445.151,203.447v6.791l-110.918,3.319l-1.097,1.528h-7.825v3.318c0,0,8.167,2.986,8.167,7.133    l3.399,2.977c0,0,5.937-1.87,6.71,2.978l6.71,3.732c0,0-0.342-3.373,4.083-4.146c4.497-0.702,4.497,4.146,4.497,4.146h8.239v3.337    h3.741l-3.741,7.123c0,0,3.327,1.115,4.425,4.084H383.9c0,0,15.686,3.741,18.258,13.438H396.6c0,0,3.616,6.15,2.789,13.213h11.009    c1.582,0,8.58,2.977,9.624,5.404c0-0.422,0.539-1.799,1.798-1.799c1.17,0,4.768,1.178,4.768,0c0-0.846,2.554,0,2.554,0v0.973    l2.627,0.404c0.432,1.178-1.979,3.605-1.979,3.605l-3.543,4.426c1.366,2.068,3.651,5.406,3.957,5.953    c0.342,0.828-1.062,1.799-2.015,0c-0.611-1.043-2.015-3.039-3.058-4.496l-7.321,9.273c0,0-0.342,0.279-0.846,0.764l-0.954,5.738    l-2.229-0.342v5.189l-1.925,0.973l-2.285,2.555l-1.043-0.891l-2.23,1.096l0.216,0.361l-5.522,2.904l-0.306-0.494l-1.151,0.629    l0.126,0.342l-5.541,2.914l-0.197-0.486l-2.213,1.098l0.198,0.424l-5.522,2.914l-0.306-0.549l-1.907,0.971l0.107,0.27    l-5.521,2.896l-0.198-0.414l-4.228,2.088l-2.914,1.51l-0.072-0.053l-2.212,1.098v0.063l-5.522,2.914l-0.504-0.891h-2.968v1.313    h-6.225v-1.313h-2.015v1.313h-6.224v-1.313h-2.015v1.313h-6.297v-1.313h-2.015v1.313h-6.224v-1.313h-2.015v1.313h-6.296v-1.313    H318.8v1.313h-6.224v-1.313h-1.997v1.313h-6.242v-1.313h-1.997v1.313h-6.313v-1.313h-1.997v1.313h-6.241v-1.313h-1.997v1.313    h-6.296v-1.313h-2.015v1.313h-6.225v-1.313h-2.015v1.313h-6.22v-1.313h-2.015v1.313h-6.295v-1.313h-2.015v1.313h-6.224v-1.313    h-2.015v1.313h-6.296v-1.313h-1.997v1.313h-6.242v-1.313h-1.997v1.313h-6.242v-1.313h-2.069v1.313h-6.224v-1.313h-2.015v1.313    h-6.224v-1.313h-2.015v1.313h-6.296v-1.313h-2.015v1.313h-6.224v-1.313h-2.015v1.313h-6.296v-1.313h-2.015v1.313h-6.224v-1.313    h-1.997v1.313h-6.242v-1.313h-1.997v1.313h-6.314v-2.842l-1.799-1.188l-0.953,1.25l-4.92-3.805l0.684-0.898l-1.79-1.098    l-0.962,1.242l-4.919-3.877l0.692-0.836l-1.799-1.189l-1.403,1.674l-4.92-3.805l1.062-1.322l-1.601-1.043l-1.106,1.395    l-4.92-3.814l0.764-1.033l-0.144-0.135c-1.304-0.342-2.41-0.766-3.175-1.18c-1.718-0.971-4.919-3.453-7.969-6.088l-4.623-3.121    c-2.708,0-6.935-0.135-8.536-0.828c-0.611,1.115-1.718,1.934-3.319,2.006c-0.117,0.082-0.27,0.082-0.414,0.082l0,0    c-1.304,0-2.482-0.504-3.247-1.322c-0.765-0.766-1.106-1.809-1.106-2.779c0-1.584,0.908-3.32,2.779-3.867    c0.611-0.217,1.151-0.27,1.718-0.27c1.259,0,2.365,0.467,3.049,1.168c0.692-0.898,1.871-1.672,3.669-1.871    c-0.917-1.115-1.529-1.871-1.529-1.871H92.797v-3.184H72.803v-19.176h-5.955v-11.629h3.931c0,0,0.836-2.348,3.049-2.348    c2.221,0,25.336,0,25.336,0v3.795h3.193h1.16l1.942-1.924h5.262h2.555l-5.19-9.695l3.742-4.497l-6.368-3.319l4.839-5.604    l-4.497-2.636v-8.175h8.58v-2.636h41.463v-2.977h5.217v2.572h7.816v2.275h10.11c0,0,1.106-4.146,7.474-4.146    c6.368,0,5.613,4.497,5.613,4.497v-5.604h8.922v-33.233h22.135v-2.555h-0.045c-0.765,0-2.591,0.271-5.001,0.684    c-2.132,0.342-3.732,0.495-4.497,0.558l-0.27,0.072l0,0h-0.072v-0.135c0.072-1.943-0.072-3.535-0.153-4.633    c-0.117-0.772-0.189-1.187-0.189-1.259v-0.063h0.072c0.072,0,0.198,0,0.342,0h2.905h9.147h0.045    c0.072-0.072,0.296-0.207,0.296-0.549v-0.072l0,0v-0.081h0.054v-0.27c0,0,0.144-0.701,0.755-0.701h2.779    c0-0.063,0.072-0.063,0.198-0.063c0.072,0,0.153,0,0.153,0.063h1.52v-1.16h3.121l0,0h-3.391h-0.144v-0.288l-0.279-0.135    c0,0-1.322,0-1.592,0c-0.126,0-0.765,0.071-1.178,0.135v0.288h-0.126v-0.082c0,0.082-0.072,0.136-0.225,0.136h-0.954h-1.87    c-0.153,0-0.342-0.054-0.495-0.198c0,0,0,0,0-0.072c-0.072,0.072-0.144,0.072-0.198,0.072c-0.216,0-0.297-0.072-0.297-0.072    s-0.117,0.072-0.188,0.072c-0.153,0-0.225-0.072-0.225-0.072v-1.654c0,0,0.072-0.072,0.225-0.072c0.072,0,0.188,0.072,0.188,0.072    s0.081-0.072,0.297-0.072c0.054,0,0.126,0,0.198,0.072c0.072-0.216,0.27-0.288,0.495-0.288h1.87h0.954    c0.153,0,0.225,0.072,0.225,0.145v-0.072h0.126v0.27c0.413,0,1.052,0.071,1.178,0.071c0.27,0,1.592,0,1.592,0l0.279-0.125v-0.216    h0.144h1.178c0.055-0.072,0.126-0.207,0.27-0.207h0.126v-0.549l0,0c-0.054,0-0.126,0-0.126-0.072c0-0.071,0.072-0.144,0.126-0.144    h1.178c0.072,0,0.153,0.072,0.153,0.144c0,0.072-0.081,0.072-0.153,0.072l0,0v0.549h0.153c0.144,0,0.198,0.135,0.27,0.207h0.216    l0.198,0.216h1.745v0.125h0.396v-0.125h1.601v-0.144h0.684v0.197h0.081l0,0h0.216v0.071h0.126v-0.269h0.765v-0.072h0.144v2.087    h-0.144v-0.145h-0.765v-0.207h-0.126v0.063h-0.216v-0.063l-0.081,0.063v0.144h-0.684v-0.144h-1.601v-0.063h-0.396v0.063h-0.288    v1.448h5.181v0.08h0.082v-0.144h-0.082v-0.207v-0.071h-0.342l-0.072-0.352l0.144,0.081l0.082,0.063h0.755h1.457    c0,0,0.612,0.071,0.612,0c0.297-0.342,0.566,0,0.566,0h0.881v0.071c0.072,0,0.072,0,0.072,0l0,0h10.262c0,0,0.072,0,0.117,0.072    c0.081,0,0.225,0,0.297,0c0.197,0,0.341,0.405,0.341,0.405h0.764v-0.136h0.424v-0.054h1.987c0,0,0.152,0,0.423,0    c0.216,0,0.341,0.054,0.413,0.27c0.072,0.198,0.271,0.621,0.692,0.621h0.072l0.198,0.063v0.072h8.882v-0.27    c0-0.072,0.072-0.145,0.107-0.288c0.162-0.278,0.306-0.62,0.306-1.043v-0.271c0-0.207,0.055-0.207,0.271-0.207h0.611    c0.145,0,0.216,0,0.216,0.136v1.942h0.468c0.072-0.135,0.072-0.207,0.162-0.207h0.198c0,0,0.071,0.072,0.071,0.207h3.184    c0.072,0,0.198,0.072,0.271,0.135c0-0.063,0.072-0.135,0.162-0.135c0.035,0,0.107,0.072,0.107,0.135v0.495    c0,0.054-0.072,0.135-0.107,0.135c-0.09,0-0.162,0-0.162-0.135c-0.072,0.135-0.198,0.135-0.271,0.135h-3.184    c0,0.135-0.071,0.207-0.071,0.207H272.3c-0.09,0-0.09-0.072-0.162-0.207h-1.295l-0.144,0.207v0.414h-0.343l-0.125-0.073    l0.035-0.341v-0.207h-8.989v0.207h-0.342v-0.135h-0.962v0.135h-0.495v-0.072h-2.708v0.288h-0.044l-0.145,0.054h-0.152    l-0.126-0.054h-0.144c0,0.125-0.072,0.198-0.197,0.198c0,0-0.145,0-0.216,0c-0.081,0.144-0.125,0.144-0.198,0.144h-4.434    c0,0-1.79,0-2.968,0c-0.765,0-0.989,0-0.989,0c-1.988,0.477-5.262,0.629-5.333,0.629h-0.045v-0.152h-0.72v-0.063h-1.844    c0,0.063,0,0.135-0.144,0.135v0.423c0,0,0,0.125-0.152,0.125c-0.118,0.828-0.073,3.257,0,5.541h43.833v-2.555h17.161v2.555    l11.549,6.368v-4.084h1.528c0,0,2.986-4.155,6.296-3.741c3.4,0.351,5.271,4.083,1.871,8.166l7.483,6.026h5.253v2.213    L445.151,203.447z M226.946,188.157h7.771c-0.072-1.583-0.225-3.112-0.153-4.642l-0.216,0.145h-0.125v0.072l-0.27,0.558    l-0.144,0.071c0,0,0.198-0.351,0.144-0.495c0-0.134-0.225-0.206-0.225-0.206h-0.072v-0.765v-0.135h-0.045l-0.072-0.063h-1.754    v0.063c0,0-0.189,0-0.189,0.206v0.693c0,0.206-0.225,0.827-1.115,0.827h-1.025c-0.422,0-0.917-0.414-0.917-0.827v-0.414    c0-0.206,0.225-0.279,0.351-0.414c0.072,0,0.216-0.071,0.216-0.135l0,0h-0.342v0.135c0,0.063,0,0.063-0.072,0.135    c-0.072,0.073-0.153,0.073-0.153,0.136v0.63c0,0,0,0.134-0.072,0.206c-0.072,0.072-0.117,0.072-0.198,0.072h-0.342l0,0    c-0.144,0-0.495,0.063-0.639,0.351c-0.125,0.396-0.269,1.583-0.341,2.068v0.145V188.157z M272.857,180.332L272.857,180.332h2.068    c0.072,0,0.072,0,0.072-0.054c0-0.072,0-0.072-0.072-0.072h-2.068c0,0-0.072,0-0.072,0.072    C272.785,180.332,272.857,180.332,272.857,180.332L272.857,180.332z M256.771,180.063L256.771,180.063h2.708v-0.207v-0.072h-1.987    l0,0h-0.424v-0.063h-0.341l0.044,0.063V180.063z M228.961,182.967L228.961,182.967c-0.144,0.073-0.27,0.136-0.27,0.279v0.414    c0,0.351,0.414,0.701,0.765,0.701h1.025c0.836,0,1.034-0.495,1.034-0.701v-0.693c0-0.071,0-0.206,0.081-0.206h-1.673    c-0.081,0.071-0.198,0.206-0.198,0.485c0,0.414,0,0.62,0.27,0.827c-0.072-0.063-0.152,0.072-0.27-0.063    c-0.072-0.145-0.225-0.207-0.225-0.62c0-0.351,0.153-0.559,0.225-0.63h-0.567C229.159,182.832,229.033,182.896,228.961,182.967    L228.961,182.967z M214.156,182.616L214.156,182.616v1.116c0,0.278,0.198,0.558,0.54,0.558h0.341v-2.222h-0.341    C214.354,182.068,214.156,182.274,214.156,182.616L214.156,182.616z M215.389,184.29L215.389,184.29h0.486    c0.351,0,0.54-0.352,0.54-0.558v-1.116c0-0.342-0.27-0.548-0.54-0.548h-0.486V184.29z M220.03,181.789L220.03,181.789h-0.072    c0,0,0,0,0,0.072s-0.072,0.135-0.144,0.135h0.216V181.789z M219.346,181.861L219.346,181.861c0-0.072,0-0.072,0-0.072h-0.144    v0.207h0.27C219.391,181.996,219.346,181.934,219.346,181.861L219.346,181.861z M221.064,181.861L221.064,181.861    c-0.072,0.135-0.144,0.207-0.485,0.207h-0.549l0,0c-0.414,0.351-0.756,0.08-0.828-0.072v1.664c0,0.206,0,0.485,0.072,0.701    c0.072,0.198,0.27,0.342,0.54,0.342c0.072,0,0.072,0,0.144,0c0.27-0.072,0.539-0.072,0.908-0.144    c0.692-0.072,1.502-0.198,2.635-0.198c1.106-0.071,1.106-0.071,1.151-0.351l0.081-0.072c0-0.072,0.072-0.135,0.072-0.206    c0.144-0.342,0.27-0.766,0.414-1.116c0.081-0.125,0.081-0.197,0.081-0.413v-0.055c0-0.215-0.225-0.422-0.647-0.422h-3.319    C221.217,181.727,221.145,181.789,221.064,181.861L221.064,181.861z M235.059,178.39L235.059,178.39    c0-0.198-0.072-0.271-0.297-0.271c-0.198,0-1.106,0-1.106,0h-1.232c0,0-0.216,0-0.216,0.216c0,0.207,0,0.684,0,0.819h2.851    C235.059,179.019,235.059,178.605,235.059,178.39L235.059,178.39z M243.991,178.813L243.991,178.813L243.991,178.813    c0.072,0,0.072,0,0.072,0H243.991z M126.364,262.854c0.342-0.279,0.755-0.494,1.106-0.764h-13.131v0.764H126.364z     M215.875,329.582L215.875,329.582v0.963h1.187C216.639,330.203,216.225,329.932,215.875,329.582L215.875,329.582z     M233.611,330.273L233.611,330.273c-0.153,0.082-0.225,0.137-0.369,0.271h0.369V330.273z M370.391,325.498L370.391,325.498    l0.126,0.199l1.025-0.549l-0.468-0.963C370.858,324.672,370.66,325.084,370.391,325.498L370.391,325.498z M399.244,315.191    L399.244,315.191l-0.81-1.602v-0.828c-0.378,0.064-0.72,0.145-0.989,0.199c-0.773,0.07-1.457,0-2.069-0.055l0.612,0.549    l1.188,0.693l0.827,1.654L399.244,315.191z M377.028,320.857L377.028,320.857l0.882,1.654l1.061-0.549l-0.827-1.664l1.025-0.547    l1.457,1.25l1.169,0.764l0.918,1.664l1.87-0.971l-0.772-1.457v-1.521l-0.145-1.734l0.972-0.486l0.827,1.664l1.115-0.549    l-0.899-1.664l1.115-0.549l1.457,1.242l1.169,0.756l0.774,1.527l2.212-1.105l-0.773-1.602l-0.071-1.447l-0.072-1.736l0.917-0.549    l0.882,1.656l1.062-0.559l-0.846-1.654l0.342-0.135c-2.896-0.891-4.767-2.762-4.767-2.762s-5.181,2.338-10.056,3.939    c-1.151,0.414-3.742,0.898-7.178,1.457c0.27,1.098,0.414,2.213,0.414,3.318c0,1.664-0.288,3.184-0.756,4.561l0.27-0.135    l1.439,1.25l1.188,0.756l1.097,2.014l1.602-0.764l-0.827-1.592l-0.072-1.529l-0.072-1.727L377.028,320.857z M369.905,329.797    L369.905,329.797l-1.043-2.014v-0.072c-0.631,0.621-1.242,1.25-1.943,1.799l0.701,1.395L369.905,329.797z M361.433,332.486    L361.433,332.486l-0.198-0.27c-0.342,0.063-0.684,0.135-1.097,0.135v0.135H361.433z M353.913,332.486L353.913,332.486v-0.691    c-0.917-0.279-1.816-0.684-2.626-1.17l0.611,1.043v0.818H353.913z M329.125,332.486L329.125,332.486v-0.891l0.684-1.322    l0.702-1.592h1.025v1.863h1.259v-1.863h1.169l0.702,1.799l0.683,1.188v0.818h2.015v-0.891l0.685-1.322l0.701-1.592h1.098v1.863    h1.187v-1.863h1.241l0.702,1.799l0.684,1.188v0.818h2.015v-0.891l0.684-1.322l0.701-1.592h1.025v1.863h1.26v-1.305    c-3.059-2.572-5.001-6.439-5.001-10.73c0-0.135,0-0.279,0-0.422c-4.012,0.287-7.663,0.422-10.793,0.422    c0,5.189-2.824,9.758-7.052,12.115l0.611,1.043v0.818H329.125z M320.814,332.416L320.814,332.416    c-0.414,0.07-0.846,0.07-1.224,0.07h1.224V332.416z M319.591,332.486L319.591,332.486c-0.306,0-0.503,0-0.791,0l0,0H319.591z     M296.026,332.486L296.026,332.486v-0.891l0.72-1.322l0.684-1.592h1.097v1.863h1.188v-1.863h1.188l0.737,1.799l0.701,1.188v0.818    h1.997v-0.891l0.684-1.322l0.72-1.592h1.025v1.863h1.187v-1.863h1.224l0.702,1.799l0.701,1.188v0.818h1.997v-0.891l0.342-0.773    c-4.354-2.338-7.321-6.998-7.321-12.313c-1.529,0-3.13,0-4.785,0c0,5.314-2.914,9.902-7.268,12.313l0.485,0.846v0.818H296.026z     M287.788,332.486L287.788,332.486c-0.342,0-0.612,0-0.953,0H287.788L287.788,332.486z M286.835,332.486L286.835,332.486    c-0.36,0-0.702,0-1.044,0l0,0H286.835z M271.256,332.486L271.256,332.486v-0.891l0.684-1.322l0.702-1.592h1.097v1.863h1.188    v-1.863h1.17l0.701,1.799l0.684,1.188v0.818h2.015v-0.891l0.468-0.898c-4.21-2.365-7.105-6.926-7.105-12.188    c-1.062,0-2.158,0-3.202,0c0,4.002-1.673,7.609-4.354,10.172h0.126v1.863h1.188v-1.863h1.26l0.683,1.799l0.684,1.188v0.818    H271.256z M263.021,332.486L263.021,332.486v-0.891l0.685-1.322l0.152-0.422c-0.908,0.693-1.87,1.26-2.977,1.664l0.125,0.152    v0.818H263.021z M254.711,332.486L254.711,332.486L254.711,332.486c-0.692-0.07-1.304-0.135-2.015-0.27v0.27H254.711z     M238.162,332.486L238.162,332.486v-0.891l0.683-1.322l0.711-1.592h1.106v1.863h1.16v-1.863h1.25l0.693,1.799l0.692,1.188v0.818    h2.015v-0.891l0.684-1.322l0.225-0.547c-3.472-2.5-5.684-6.584-5.684-11.217c-0.837,0-1.745,0-2.626,0    c0,0.207,0.072,0.342,0.072,0.477c0,3.949-1.601,7.555-4.155,10.109l0.467,1.385l0.711,1.188v0.818H238.162z M229.923,332.279    L229.923,332.279c-0.27,0.072-0.549,0.137-0.765,0.207h0.765V332.279z M221.145,332.486L221.145,332.486    c-0.495-0.135-0.99-0.27-1.529-0.477v0.477H221.145z M205.153,332.486L205.153,332.486v-0.891l0.693-1.322l0.683-1.592h1.035    v1.863h1.259v-1.863h1.178l0.684,1.799l0.692,1.188v0.818h2.015v-0.891l0.693-1.322l0.684-1.592h0.126    c-2.267-2.49-3.661-5.746-3.715-9.408c0-0.215,0-0.494,0-0.764c-0.908,0-1.889,0-2.851,0c0,0.207,0.072,0.342,0.072,0.477    c0,4.785-2.357,9.004-5.954,11.559l0.692,1.123v0.818H205.153z M188.604,332.486L188.604,332.486v-0.611    c-1.035-0.494-2.015-1.053-2.851-1.734l0.144,0.34l0.692,1.188v0.818H188.604z M180.293,332.486L180.293,332.486v-0.891    l0.765-1.322l0.684-1.592h1.034v1.863h1.178v-1.863h0.225c-2.285-2.49-3.742-5.746-3.742-9.408c0-0.215,0-0.494,0-0.764    c-0.836,0-1.592,0-2.428,0c0,0.207,0,0.342,0,0.477c0.072,3.742-1.385,7.133-3.742,9.695h0.27v1.863h1.178v-1.863h1.188    l0.684,1.799l0.692,1.188v0.818H180.293z M172.055,332.486L172.055,332.486v-0.891l0.683-1.322l0.153-0.342    c-0.836,0.766-1.798,1.314-2.833,1.791v0.764H172.055z" style="fill:#010101;"/></g></g><g id="Layer_1"/></svg>
